/* XPM */
static char *_3126edd39d9456e904f4aee25ff74705utK4JmXpYDp5pvO[] = {
/* columns rows colors chars-per-pixel */
"64 64 63 1 ",
"  c red",
". c #F90606",
"X c #F60909",
"o c #F30C0C",
"O c #EF1010",
"+ c #EB1414",
"@ c #E51A1A",
"# c #E21D1D",
"$ c #DD2222",
"% c #D82727",
"& c #D52A2A",
"* c #D12E2E",
"= c #CF3030",
"- c #C83737",
"; c #C43B3B",
": c #C23D3D",
"> c #BC4343",
", c #B94646",
"< c #B74848",
"1 c #B34C4C",
"2 c #AC5353",
"3 c #A95656",
"4 c #A65959",
"5 c #A15E5E",
"6 c #9D6262",
"7 c #996666",
"8 c #946B6B",
"9 c #906F6F",
"0 c #8C7373",
"q c #887777",
"w c #867979",
"e c #827D7D",
"r c #7F8080",
"t c #7A8585",
"y c #708F8F",
"u c #6E9191",
"i c #6A9595",
"p c #679898",
"a c #609F9F",
"s c #5CA3A3",
"d c #5BA4A4",
"f c #54ABAB",
"g c #51AEAE",
"h c #4FB0B0",
"j c #48B7B7",
"k c #46B9B9",
"l c #42BDBD",
"z c #3CC3C3",
"x c #3BC4C4",
"c c #36C9C9",
"v c #32CDCD",
"b c #2DD2D2",
"n c #2AD5D5",
"m c #25DADA",
"M c #20DFDF",
"N c #1EE1E1",
"B c #1AE5E5",
"V c #17E8E8",
"C c #13ECEC",
"Z c #0FF0F0",
"A c #08F7F7",
"S c #05FAFA",
"D c cyan",
/* pixels */
"DDDDDDDDDDDDDDDDDDDDDDDDDDDDDDDDDDDDDDDDDDDDDDDDDDDDDDDDDDDDDDDD",
"DDDDDDDDDDDDDDDDDDDDDDDDDDDDDDDDDDDDDDDDDDDDDDDDDDDDDDDDDDDDDDDD",
"DDDDDDDDDDDDDDDDDDDDDDDDDDDDDDDDDDDDDDDDDDDDDDDDDDDDDDDDDDDDDDDD",
"DDDDDDDDDDDDDDDDDDDDDDDDDDDDDDDDDDDDDDDDDDDDDDDDDDDDDDDDDDDDDDDD",
"DDDDDDDDDDDDDDDDDDDDDDDDDDDDDDDDDDDDDDDDDDDDDDDDDDDDDDDDDDDDDDDD",
"DDDDDDDDDDDDDDDDDDDDDDDDDDDDDDDDDDDDDDDDDDDDDDDDDDDDDDDDDDDDDDDD",
"DDDDDDDDDDDDDDDDDDDDDDDDDDDDDDDDDDDDDDDDDDDDDDDDDDDDDDDDDDDDDDDD",
"DDDDDDDDDDDDDDDDDDDDDDDDDDDDDDDDDDDDDDDDDDDDDDDDDDDDDDDDDDDDDDDD",
"DDDDDDDDDDDDDDDDDDDDDDDDDDDDDDDDDDDDDDDDDDDDDDDDDDDDDDDDDDDDDDDD",
"DDDDDDDDDDDDDDDDDDDDDDDDDDDDDDDDDDDDDDDDDDDDDDDDDDDDDDDDDDDDDDDD",
"DDDDDDDDDDDDDDDDDDDDDDDDDDDDDDDDDDDDDDDDDDDDDDDDDDDDDDDDDDDDDDDD",
"DDDDDDDDDDDZd8777777777777777777777777777777777tmDDDDDDDDDDDDDDD",
"DDDDDDDDDDDSNvxu1+                             -zSDDDDDDDDDDDDDD",
"DDDDDDDDDDDDDDDZb9o         $<111111>-&+.      =zSDDDDDDDDDDDDDD",
"DDDDDDDDDDDDDDDDDm&         7mBBBBBBnzgu6%     -zSDDDDDDDDDDDDDD",
"DDDDDDDDDDDDDDDDDD1.        0ZDDDDDDDSSANj1X   -zSDDDDDDDDDDDDDD",
"DDDDDDDDDDDDDDDDDD4X        0ZDDDDDDDDDDDDm0+  -zSDDDDDDDDDDDDDD",
"DDDDDDDDDDDDDDDDDD4X        0ZDDDDDDDDDDDDDm7o -zSDDDDDDDDDDDDDD",
"DDDDDDDDDDDDDDDDDD4X        0ZDDDDDDDDDDDDDDl- -zSDDDDDDDDDDDDDD",
"DDDDDDDDDDDDDDDDDD4X        0ZDDDDDDDDDDDDDDZ0.-zSDDDDDDDDDDDDDD",
"DDDDDDDDDDDDDDDDDD4X        0ZDDDDDDDZBSDDDDDk#-zSDDDDDDDDDDDDDD",
"DDDDDDDDDDDDDDDDDD4X        0ZDDDDDDDdqBDDDDDV;-zSDDDDDDDDDDDDDD",
"DDDDDDDDDDDDDDDDDD4X        0ZDDDDDDDr3NDDDDDD7:zSDDDDDDDDDDDDDD",
"DDDDDDDDDDDDDDDDDD4X        0ZDDDDDDA81NDDDDDDu<zSDDDDDDDDDDDDDD",
"DDDDDDDDDDDDDDDDDD4X        0ZDDDDDDn,1NDDDDDDCMZDDDDDDDDDDDDDDD",
"DDDDDDDDDDDDDDDDDD4X        0ZDDDDDDj&1NDDDDDDDDDDDDDDDDDDDDDDDD",
"DDDDDDDDDDDDDDDDDD4X        0ZDDDDDZrO1NDDDDDDDDDDDDDDDDDDDDDDDD",
"DDDDDDDDDDDDDDDDDD4X        0ZDDDDDb<.1NDDDDDDDDDDDDDDDDDDDDDDDD",
"DDDDDDDDDDDDDDDDDD4X        0ZDDDDVe+ 1NDDDDDDDDDDDDDDDDDDDDDDDD",
"DDDDDDDDDDDDDDDDDD4X        0ZDDDVy%  1NDDDDDDDDDDDDDDDDDDDDDDDD",
"DDDDDDDDDDDDDDDDDD4X        0ZSmjq$.  1NDDDDDDDDDDDDDDDDDDDDDDDD",
"DDDDDDDDDDDDDDDDDD4X        *66<*o    1NDDDDDDDDDDDDDDDDDDDDDDDD",
"DDDDDDDDDDDDDDDDDD4X                  1NDDDDDDDDDDDDDDDDDDDDDDDD",
"DDDDDDDDDDDDDDDDDD4X        $<:*+.    1NDDDDDDDDDDDDDDDDDDDDDDDD",
"DDDDDDDDDDDDDDDDDD4X        7mbki3X   1NDDDDDDDDDDDDDDDDDDDDDDDD",
"DDDDDDDDDDDDDDDDDD4X        0ZDSAm5o  1NDDDDDDDDDDDDDDDDDDDDDDDD",
"DDDDDDDDDDDDDDDDDD4X        0ZDDDDm6o 1NDDDDDDDDDDDDDDDDDDDDDDDD",
"DDDDDDDDDDDDDDDDDD4X        0ZDDDDSh= 1NDDDDDDDDDDDDDDDDDDDDDDDD",
"DDDDDDDDDDDDDDDDDD4X        0ZDDDDDV9X1NDDDDDDDDDDDDDDDDDDDDDDDD",
"DDDDDDDDDDDDDDDDDD4X        0ZDDDDDDs$1NDDDDDDDDDDDDDDDDDDDDDDDD",
"DDDDDDDDDDDDDDDDDD4X        0ZDDDDDDb>1NDDDDDDDDDkrVDDDDDDDDDDDD",
"DDDDDDDDDDDDDDDDDD4X        0ZDDDDDDZ51NDDDDDDDDAq3NDDDDDDDDDDDD",
"DDDDDDDDDDDDDDDDDD4X        0ZDDDDDDDw2NDDDDDDDDv>6BDDDDDDDDDDDD",
"DDDDDDDDDDDDDDDDDD4X        0ZDDDDDDDu4NDDDDDDDSp#wCDDDDDDDDDDDD",
"DDDDDDDDDDDDDDDDDD4X        0ZDDDDDDDVMSDDDDDDDv1.pZDDDDDDDDDDDD",
"DDDDDDDDDDDDDDDDDD4X        0ZDDDDDDDDDDDDDDDDZr+ kSDDDDDDDDDDDD",
"DDDDDDDDDDDDDDDDDD4X        0ZDDDDDDDDDDDDDDDDg=.OvDDDDDDDDDDDDD",
"DDDDDDDDDDDDDDDDDD4X        0ZDDDDDDDDDDDDDDDz;. %mDDDDDDDDDDDDD",
"DDDDDDDDDDDDDDDDDD3X        5NDDDDDDDDDDDDDBa-   >NDDDDDDDDDDDDD",
"DDDDDDDDDDDDDDDDDD>         :cDDDDDDDDDDSVj8%.   4VDDDDDDDDDDDDD",
"DDDDDDDDDDDDDDDDDN&         O0vZDDDDDVbki8*o     qZDDDDDDDDDDDDD",
"DDDDDDDDDDDDDDDDAuO          +>4777773>=@X       uDDDDDDDDDDDDDD",
"DDDDDDDDDDDSVmbd6#                              OdDDDDDDDDDDDDDD",
"DDDDDDDDDDDZfq07411111111111111111111111111111115xDDDDDDDDDDDDDD",
"DDDDDDDDDDDDZBBBBBBBBBBBBBBBBBBBBBBBBBBBBBBBBBBBVADDDDDDDDDDDDDD",
"DDDDDDDDDDDDDDDDDDDDDDDDDDDDDDDDDDDDDDDDDDDDDDDDDDDDDDDDDDDDDDDD",
"DDDDDDDDDDDDDDDDDDDDDDDDDDDDDDDDDDDDDDDDDDDDDDDDDDDDDDDDDDDDDDDD",
"DDDDDDDDDDDDDDDDDDDDDDDDDDDDDDDDDDDDDDDDDDDDDDDDDDDDDDDDDDDDDDDD",
"DDDDDDDDDDDDDDDDDDDDDDDDDDDDDDDDDDDDDDDDDDDDDDDDDDDDDDDDDDDDDDDD",
"DDDDDDDDDDDDDDDDDDDDDDDDDDDDDDDDDDDDDDDDDDDDDDDDDDDDDDDDDDDDDDDD",
"DDDDDDDDDDDDDDDDDDDDDDDDDDDDDDDDDDDDDDDDDDDDDDDDDDDDDDDDDDDDDDDD",
"DDDDDDDDDDDDDDDDDDDDDDDDDDDDDDDDDDDDDDDDDDDDDDDDDDDDDDDDDDDDDDDD",
"DDDDDDDDDDDDDDDDDDDDDDDDDDDDDDDDDDDDDDDDDDDDDDDDDDDDDDDDDDDDDDDD",
"DDDDDDDDDDDDDDDDDDDDDDDDDDDDDDDDDDDDDDDDDDDDDDDDDDDDDDDDDDDDDDDD"
};
