/* XPM */
static char *d93e27bcc6834428ed3b766b9609d447GnikN9mVu4moCqiK[] = {
/* columns rows colors chars-per-pixel */
"64 64 63 1 ",
"  c yellow",
". c #F8F807",
"X c #F7F708",
"o c #F3F30C",
"O c #EEEE11",
"+ c #EBEB14",
"@ c #E5E51A",
"# c #E2E21D",
"$ c #DEDE21",
"% c #DADA25",
"& c #D6D629",
"* c #D1D12E",
"= c #CCCC33",
"- c #C8C837",
"; c #C6C639",
": c #C3C33C",
"> c #BFBF40",
", c #B8B847",
"< c #B4B44B",
"1 c #B1B14E",
"2 c #ACAC53",
"3 c #ABAB54",
"4 c #A7A758",
"5 c #A0A05F",
"6 c #9C9C63",
"7 c #999966",
"8 c #969669",
"9 c #91916E",
"0 c #8C8C73",
"q c #888877",
"w c #85857A",
"e c #81817E",
"r c #7D7D82",
"t c #7B7B84",
"y c #74748B",
"u c #73738C",
"i c #6C6C93",
"p c #6A6A95",
"a c #666699",
"s c #61619E",
"d c #5C5CA3",
"f c #5B5BA4",
"g c #5454AB",
"h c #5252AD",
"j c #4C4CB3",
"k c #4B4BB4",
"l c #4444BB",
"z c #4040BF",
"x c #3D3DC2",
"c c #3B3BC4",
"v c #3030CF",
"b c #2E2ED1",
"n c #2929D6",
"m c #2525DA",
"M c #2323DC",
"N c #1C1CE3",
"B c #1919E6",
"V c #1515EA",
"C c #1313EC",
"Z c #0C0CF3",
"A c #0909F6",
"S c #0606F9",
"D c blue",
/* pixels */
"                                                                ",
"                                                                ",
"                                                                ",
"                                                                ",
"                                                                ",
"                                                                ",
"                                                                ",
"                                                                ",
"                                                                ",
"                                                                ",
"          waaaaaaaaaaaaaa3X            $wpaaaaaaaaaaat@         ",
"          *4ubSDDDDDDDDDDN<.           o&,elCDDDDDNfe>X         ",
"           X+,cSDDDDDDDDDDl;.            .O=iVDDDm5$O.          ",
"             .3vSDDDDDDDDDZs&               &hDDCwo             ",
"              OqNDDDDDDDDDDVr@               0ZDc:              ",
"               @pADDDDDDDDDDVqX              >NDf#              ",
"                qZDDDDDDDDDDDM<X             %mDio              ",
"                0ZDDDDDDDDDDDDk;.            .vDuo              ",
"                0ZCZDDDDDDDDDDZa%             vDuo              ",
"                0ZxiNDDDDDDDDDDZu#            vDuo              ",
"                0Zk>iVDDDDDDDDDDB0X           vDuo              ",
"                0Zj$*fSDDDDDDDDDDn,X          vDuo              ",
"                0Zj# ;vSDDDDDDDDDDk=.         vDuo              ",
"                0Zj#  2bDDDDDDDDDDSg&         vDuo              ",
"                0Zj#  O9mDDDDDDDDDDCy@        vDuo              ",
"                0Zj#   @tVDDDDDDDDDDN9X       vDuo              ",
"                0Zj#    $dSDDDDDDDDDDn>.      vDuo              ",
"                0Zj#     %lADDDDDDDDDDx:.     vDuo              ",
"                0Zj#      1cSDDDDDDDDDAd&     vDuo              ",
"                0Zj#      O8mDDDDDDDDDDVt@    vDuo              ",
"                0Zj#       +eBDDDDDDDDDDN8X   vDuo              ",
"                0Zj#        @yZDDDDDDDDDDN<.  vDuo              ",
"                0Zj#         &jADDDDDDDDDDl;. vDuo              ",
"                0Zj#         .,xSDDDDDDDDDZs& vDuo              ",
"                0Zj#          o5bDDDDDDDDDDVr@vDuo              ",
"                0Zj#           X7MDDDDDDDDDDVqnDuo              ",
"                0Zj#            +rZDDDDDDDDDDMZDuo              ",
"                0Zj#             $hADDDDDDDDDDDDuo              ",
"                0Zj#              >zSDDDDDDDDDDDuo              ",
"                0Zj#              .<cSDDDDDDDDDDuo              ",
"                0Zj#               o6nDDDDDDDDDDuo              ",
"                0Zj#                @eZDDDDDDDDDuo              ",
"                0Zj#                 #dADDDDDDDDuo              ",
"                0Zj#                  &gZDDDDDDDuo              ",
"                0Zj#                  .<zSDDDDDDuo              ",
"                0Zj#                   o4nDDDDDDuo              ",
"               XrAj#                    O0CDDDDDuo              ",
"               @aAl$                     oiCDDDDuo              ",
"               &jSm>.                     &dZDDDuo              ",
"              .3nDZr+                     .>lSDDuo              ",
"              ;jADDb6O                     X3bDDuo              ",
"          #-5unSDDDDVj5*$o                  X5MDuo              ",
"          0iafjjjjjjjgaue*                   orByo              ",
"          +@@@@@@@@@@@@@+X                    %0<.              ",
"                                               X.               ",
"                                                                ",
"                                                                ",
"                                                                ",
"                                                                ",
"                                                                ",
"                                                                ",
"                                                                ",
"                                                                ",
"                                                                "
};
