/* XPM */
static char *_fe0ba125820435ffed3d8efc02edd0eiHBw4MuXObqzNykT[] = {
/* columns rows colors chars-per-pixel */
"64 64 22 1 ",
"  c #555555",
". c #5A5A5A",
"X c gray36",
"o c gray38",
"O c #656565",
"+ c #686868",
"@ c #6F6F6F",
"# c #727272",
"$ c #777777",
"% c #7B7B7B",
"& c #7E7E7E",
"* c #838383",
"= c gray52",
"- c #898989",
"; c gray55",
": c #939393",
"> c #959595",
", c gray60",
"< c gray62",
"1 c #A0A0A0",
"2 c #A7A7A7",
"3 c #AAAAAA",
/* pixels */
"3333333333333333333333333333333333333333333333333333333333333333",
"3333333333333333333333333333333333333333333333333333333333333333",
"3333333333333333333333333333333333333333333333333333333333333333",
"3333333333333333333333333333333333333333333333333333333333333333",
"3333333333333333333333333333333333333333333333333333333333333333",
"3333333333333333333333333333333333333333333333333333333333333333",
"3333333333333333333333333333333333333333333333333333333333333333",
"3333333333333333333333333333333333333333333333333333333333333333",
"3333333333333333333333333333333333333333333333333333333333333333",
"33333333333333333333333331:;=**=->13333333<:23333333333333333333",
"33333333333333333333333,=@Oo....XO#*,33332=$,3333333333333333333",
"333333333333333333333<*O.  .XoooX. .o&>23<##,3333333333333333333",
"33333333333333333333<$X  .+%-,<,;*#X .O&-%X@,3333333333333333333",
"3333333333333333333,#.  .$>1233332<-@  .X. +,3333333333333333333",
"3333333333333333331%.   @,3333333332,$.    O>3333333333333333333",
"333333333333333332*X   o;3333333333331*X   O>3333333333333333333",
"33333333333333333,+    #<33333333333331&X  O>3333333333333333333",
"33333333333333333*X    $133333333333333<#  O>3333333333333333333",
"33333333333333333@     #<333333333333333:X O>3333333333333333333",
"3333333333333333<o     o:3333333333333333$.O>3333333333333333333",
"3333333333333333,o      #<333333333333333:oO>3333333333333333333",
"3333333333333333,o      .%<33333333333333<@O>3333333333333333333",
"3333333333333333,o       .$,33333333333332%O:3333333333333333333",
"3333333333333333<o        .O&<233333333333:#:3333333333333333333",
"33333333333333332+          .@=,33333333332<23333333333333333333",
"33333333333333333%.           X#=<333333333333333333333333333333",
"33333333333333333>O             X@=<3333333333333333333333333333",
"333333333333333332*X              .+=<33333333333333333333333333",
"333333333333333333,#.               X#;1333333333333333333333333",
"3333333333333333333>+                .o%,33333333333333333333333",
"33333333333333333332:O                 .+:2333333333333333333333",
"333333333333333333333,$X                 o*133333333333333333333",
"3333333333333333333333<*O.                o*13333333333333333333",
"333333333333333333333331:$o                o=3333333333333333333",
"3333333333333333333333333<;#.               O<333333333333333333",
"3333333333333333333333333331:#X              *233333333333333333",
"33333333333333333333333333333<-#X            +,33333333333333333",
"3333333333333333<;2333333333332<-#X          X;23333333333333333",
"3333333333333333;+>33333333333332<=O         .*23333333333333333",
"3333333333333333;o=2333333333333332,%.       .%13333333333333333",
"3333333333333333;X$13333333333333333<$.       %23333333333333333",
"3333333333333333;XO>33333333333333333,#.      %23333333333333333",
"3333333333333333;X.*233333333333333332;o     .&23333333333333333",
"3333333333333333;X O>33333333333333333<#     X-23333333333333333",
"3333333333333333;X .%233333333333333331$     o>23333333333333333",
"3333333333333333;X  X:23333333333333331$     $133333333333333333",
"3333333333333333;X   +:233333333333333<#    X:233333333333333333",
"3333333333333333;X    +;23333333333332-o   .&2333333333333333333",
"3333333333333333;X     O=133333333333>@.  .$,3333333333333333333",
"3333333333333333;X      X%:133333332>@.  .#>23333333333333333333",
"3333333333333333;X o&*@X .O$=>233<;&O.  .%,333333333333333333333",
"3333333333333333;X+;221:%o. .oOOOoX.  X@-13333333333333333333333",
"3333333333333333;O=233331;%+X.    .XO#=,233333333333333333333333",
"3333333333333333,=<33333331,-=&&&&*-:123333333333333333333333333",
"3333333333333333323333333333222222233333333333333333333333333333",
"3333333333333333333333333333333333333333333333333333333333333333",
"3333333333333333333333333333333333333333333333333333333333333333",
"3333333333333333333333333333333333333333333333333333333333333333",
"3333333333333333333333333333333333333333333333333333333333333333",
"3333333333333333333333333333333333333333333333333333333333333333",
"3333333333333333333333333333333333333333333333333333333333333333",
"3333333333333333333333333333333333333333333333333333333333333333",
"3333333333333333333333333333333333333333333333333333333333333333",
"3333333333333333333333333333333333333333333333333333333333333333"
};
