/* XPM */
static char *_8a9b85be8684c12a3873694c24e0280WFtSgIKOs1aPCSuV[] = {
/* columns rows colors chars-per-pixel */
"64 64 64 1 ",
"  c green",
". c #07F807",
"X c #09F609",
"o c #0EF10E",
"O c #12ED12",
"+ c #16E916",
"@ c #1AE51A",
"# c #1DE21D",
"$ c #21DE21",
"% c #25DA25",
"& c #28D728",
"* c #2CD32C",
"= c LimeGreen",
"- c #37C837",
"; c #3BC43B",
": c #3DC23D",
"> c #42BD42",
", c #46B946",
"< c #4AB54A",
"1 c #4CB34C",
"2 c #50AF50",
"3 c #55AA55",
"4 c #5BA45B",
"5 c #5CA35C",
"6 c #629D62",
"7 c #669966",
"8 c #699669",
"9 c #6D926D",
"0 c #728D72",
"q c #758A75",
"w c #798679",
"e c #7C837C",
"r c #807F80",
"t c #847B84",
"y c #8A758A",
"u c #8E718E",
"i c #916E91",
"p c #946B94",
"a c #9A659A",
"s c #9F609F",
"d c #A05FA0",
"f c #A55AA5",
"g c #AB54AB",
"h c #AF50AF",
"j c #B34CB3",
"k c #B748B7",
"l c #B946B9",
"z c #BF40BF",
"x c #C33CC3",
"c c #C639C6",
"v c #C936C9",
"b c #CF30CF",
"n c #D12ED1",
"m c #D52AD5",
"M c #D827D8",
"N c #DF20DF",
"B c #E01FE0",
"V c #E718E7",
"C c #E817E8",
"Z c #ED12ED",
"A c #F10EF1",
"S c #F609F6",
"D c #F807F8",
"F c magenta",
/* pixels */
"FFFFFFFFFFFFFFFFFFFFFFFFFFFFFFFFFFFFFFFFFFFFFFFFFFFFFFFFFFFFFFFF",
"FFFFFFFFFFFFFFFFFFFFFFFFFFFFFFFFFFFFFFFFFFFFFFFFFFFFFFFFFFFFFFFF",
"FFFFFFFFFFFFFFFFFFFFFFFFFFFFFFFFFFFFFFFFFFFFFFFFFFFFFFFFFFFFFFFF",
"FFFFFFFFFFFFFFFFFFFFFFFFFFFFFFFFFFFFFFFFFFFFFFFFFFFFFFFFFFFFFFFF",
"FFFFFFFFFFFFFFFFFFFFFFFFFFFFFFFFFFFFFFFFFFFFFFFFFFFFFFFFFFFFFFFF",
"FFFFFFFFFFFFFFFFFFFFFFFFFFFFFFFFFFFFFFFFFFFFFFFFFFFFFFFFFFFFFFFF",
"FFFFFFFFFFFFFFFFFFFFFFFFFFFFFFFFFFFFFFFFFFFFFFFFFFFFFFFFFFFFFFFF",
"FFFFFFFFFFFFFFFFFFFFFFFFFFFFFFFFFFFFFFFFFFFFFFFFFFFFFFFFFFFFFFFF",
"FFFFFFFFFFFFFFFFFFFFFFFFFFFFFFFFFFFFFFFFFFFFFFFFFFFFFFFFFFFFFFFF",
"FFFFFFFFFFFFFFFFFFFFFFFFFFFFFFFFFFFFFFFFFFFFFFFFFFFFFFFFFFFFFFFF",
"FFFFFFFFFFFFFFFFFFFFFFFFFFFFFFFFFFFFFFFFFFFFFFFFFFFFFFFFFFFFFFFF",
"FFFFFFFFFFFFFFFFFFFFFFFFFFFFFFFFFFFFFFFFFFFFFFFFFFFFFFFFFFFFFFFF",
"vw7777777777777777qvDFAs9777777777777777777pAFFFFFFFvw777777777p",
"Zj6#           X,ycZFFDNky;o           +2yxMDFFFFFFFZcu3@    $qc",
"FDBy#          :lZFFFFFFDZx4o         .3vZFFFFFFFFFFFFAm9O  %pVD",
"FFFM4X        .7VFFFFFFFFFDl:.        orZFFFFFFFFFFFFFFFg% X9BFF",
"FFFDa#         4CFFFFFFFFFFAt+        X0ZFFFFFFFFFFFFFFFl= &hDFF",
"FFFFN2         *lDFFFFFFFFFFv:         :bFFFFFFFFFFFFFFFf$X7BFFF",
"FFFFDuo        +pSFFFFFFFFFFSq.        #dSFFFFFFFFFFFFFStO@dSFFF",
"FFFFFm*        .6BFFFFFFFFFFFk@        XqCFFFFFFFFFFFFFM3.>MFFFF",
"FFFFFF6X        =zFFFFFFFFFFFZ>.        >vFFFFFFFFFFFFFz* rZFFFF",
"FFFFFFh$        .tSFFFFFFFFFFFt+        OsFFFFFFFFFFFFZwO#vFFFFF",
"FFFFFFN2X        ;NFFFFFFFFFFFc=         3CFFFFFFFFFFFM,.3CFFFFF",
"FFFFFFSi@        ohSFFFFFFFFFFV6X        #bFFFFFFFFFFFf#OpDFFFFF",
"FFFFFFFc;         8CFFFFFFFFFFDd#         uAFFFFFFFFFF7X=zFFFFFF",
"FFFFFFFC0o        %lDFFFFFFFFFFj$         ,MFFFFFFFFFn&XqZFFFFFF",
"FFFFFFFFh&        orZFFFFFFFFFZqO         #fSFFFFFFFFio%gDFFFFFF",
"FFFFFFFFB3         <nFFFFFFFFFb;.         X9ZFFFFFFFV4.1mFFFFFFF",
"FFFFFFFFFuo        #sSFFFFFFFFi+o@.        ;cDFFFFFFl*orZFFFFFFF",
"FFFFFFFFFm*         4NFFFFFFFS>.>e@        OyAFFFFFZqo*xDFFFFFFF",
"FFFFFFFFFD9o        %kFFFFFFFj@orM:.        2mFFFFFb,.7VFFFFFFFF",
"FFFFFFFFFFj%        .eSFFFFFZ9X=lDwO        $kFFFFDd$XhSFFFFFFFF",
"FFFFFFFFFFB2X        -NFFFFFx;X6BFz&        .qAFFFC7o*MFFFFFFFFF",
"FFFFFFFFFFDa@        .fSFFFAtO$jSFC6X        =MFFFx*.qAFFFFFFFFF",
"FFFFFFFFFFFv>.        5VFFFm1.2NFFSa#        .fSFFeO%jFFFFFFFFFF",
"FFFFFFFFFFFZqo        %lDFDd$XsAFFFv>.        6VFZ>.3MFFFFFFFFFF",
"FFFFFFFFFFFFh&        owZFC7o&mFFFFAwo        *xDk#OyAFFFFFFFFFF",
"FFFFFFFFFFFFC5         ;xDj%.eSFFFFFk*        owV9.;cFFFFFFFFFFF",
"FFFFFFFFFFFFFaO        +uA0o&lFFFFFFB3         ,a;X8CFFFFFFFFFFF",
"FFFFFFFFFFFFFM=        .4k-X7BFFFFFFDiO        $>+@fSFFFFFFFFFFF",
"FFFFFFFFFFFFFF9o        %2O#sSFFFFFFFn%        Xo >mFFFFFFFFFFFF",
"FFFFFFFFFFFFFFz&        .X.4NFFFFFFFFD6X          uAFFFFFFFFFFFF",
"FFFFFFFFFFFFFFV4X         OuAFFFFFFFFFf#         #bFFFFFFFFFFFFF",
"FFFFFFFFFFFFFFSa#         -cDFFFFFFFFFM,.        2VFFFFFFFFFFFFF",
"FFFFFFFFFFFFFFFv>.        qCFFFFFFFFFFAwo       oiDFFFFFFFFFFFFF",
"FFFFFFFFFFFFFFFArO       @vFFFFFFFFFFFFz-       :vFFFFFFFFFFFFFF",
"FFFFFFFFFFFFFFFFk*       5CFFFFFFFFFFFFB6X     XwZFFFFFFFFFFFFFF",
"FFFFFFFFFFFFFFFFV5.     +dFFFFFFFFFFFFFDa@     $fDFFFFFFFFFFFFFF",
"FFFFFFFFFFFFFFFFFaO     ,bFFFFFFFFFFFFFFv:     <mFFFFFFFFFFFFFFF",
"FFFFFFFFFFFFFFFFFA:    +uAFFFFFFFFFFFFFFDwX   OyAFFFFFFFFFFFFFFF",
"FFFFFFFFFFFFFFFFFFwO   ;xDFFFFFFFFFFFFFFFl@   *cDFFFFFFFFFFFFFFF",
"FFFFFFFFFFFFFFFFFFx*  X0CFFFFFFFFFFFFFFFFZ,.  6VFFFFFFFFFFFFFFFF",
"FFFFFFFFFFFFFFFFFFV4X $jSFFFFFFFFFFFFFFFFFeO .hDFFFFFFFFFFFFFFFF",
"FFFFFFFFFFFFFFFFFFDg$ 6BFFFFFFFFFFFFFFFFFFb- -NFFFFFFFFFFFFFFFFF",
"FFFFFFFFFFFFFFFFFFFm1OgSFFFFFFFFFFFFFFFFFFC8OwSFFFFFFFFFFFFFFFFF",
"FFFFFFFFFFFFFFFFFFFAhyVFFFFFFFFFFFFFFFFFFFDztvFFFFFFFFFFFFFFFFFF",
"FFFFFFFFFFFFFFFFFFFFDSFFFFFFFFFFFFFFFFFFFFFDSDFFFFFFFFFFFFFFFFFF",
"FFFFFFFFFFFFFFFFFFFFFFFFFFFFFFFFFFFFFFFFFFFFFFFFFFFFFFFFFFFFFFFF",
"FFFFFFFFFFFFFFFFFFFFFFFFFFFFFFFFFFFFFFFFFFFFFFFFFFFFFFFFFFFFFFFF",
"FFFFFFFFFFFFFFFFFFFFFFFFFFFFFFFFFFFFFFFFFFFFFFFFFFFFFFFFFFFFFFFF",
"FFFFFFFFFFFFFFFFFFFFFFFFFFFFFFFFFFFFFFFFFFFFFFFFFFFFFFFFFFFFFFFF",
"FFFFFFFFFFFFFFFFFFFFFFFFFFFFFFFFFFFFFFFFFFFFFFFFFFFFFFFFFFFFFFFF",
"FFFFFFFFFFFFFFFFFFFFFFFFFFFFFFFFFFFFFFFFFFFFFFFFFFFFFFFFFFFFFFFF",
"FFFFFFFFFFFFFFFFFFFFFFFFFFFFFFFFFFFFFFFFFFFFFFFFFFFFFFFFFFFFFFFF"
};
